<?xml version="1.0" encoding="iso-8859-1"?>
<!-- Generator: Adobe Illustrator 19.0.0, SVG Export Plug-In . SVG Version: 6.00 Build 0)  -->
<svg version="1.1" id="Capa_1" xmlns="http://www.w3.org/2000/svg" xmlns:xlink="http://www.w3.org/1999/xlink" x="0px" y="0px"
	 viewBox="0 0 512 512" style="enable-background:new 0 0 512 512;" xml:space="preserve">
<circle style="fill:#1B56DB;" cx="256" cy="256" r="256"/>
<path style="fill:#1149AA;" d="M75.924,318.92l192.765,192.766c121.885-5.95,221.366-97.141,240.117-215.226L373.03,160.684
	L75.924,318.92z"/>
<path style="fill:#FEC007;" d="M378.952,225.336V178.19c0-15.937-12.919-28.856-28.856-28.856H108.509
	c-17.996,0-32.585,14.589-32.585,32.585V318.92h364.825v-64.727c0-15.937-12.919-28.856-28.856-28.856h-32.941V225.336z"/>
<rect x="75.924" y="261.67" style="fill:#FE9F00;" width="364.82" height="57.25"/>
<circle style="fill:#212121;" cx="141.53" cy="319.99" r="37.29"/>
<circle style="fill:#616161;" cx="141.53" cy="319.99" r="19.18"/>
<circle style="fill:#0C0C0C;" cx="381.26" cy="319.99" r="37.29"/>
<circle style="fill:#424242;" cx="381.26" cy="319.99" r="19.18"/>
<g>
	<rect x="88.44" y="179.34" style="fill:#47D7FD;" width="69.46" height="50.08"/>
	<rect x="335.45" y="179.34" style="fill:#47D7FD;" width="43.506" height="45.993"/>
	<rect x="174.89" y="179.34" style="fill:#47D7FD;" width="69.46" height="50.08"/>
</g>
<rect x="259.26" y="179.34" style="fill:#37474F;" width="62.862" height="139.58"/>
<rect x="259.26" y="261.67" style="fill:#263238;" width="62.862" height="57.25"/>
<g>
</g>
<g>
</g>
<g>
</g>
<g>
</g>
<g>
</g>
<g>
</g>
<g>
</g>
<g>
</g>
<g>
</g>
<g>
</g>
<g>
</g>
<g>
</g>
<g>
</g>
<g>
</g>
<g>
</g>
</svg>
